name p4_grf_mean_speed_1.6
datacolumns 13
datarows 22
range 0.0000000000 0.2100000000
endheader
time	grf_x_l_mean	grf_x_l_var	grf_y_l_mean	grf_y_l_var	grf_z_l_mean	grf_z_l_var	grf_x_r_mean	grf_x_r_var	grf_y_r_mean	grf_y_r_var	grf_z_r_mean	grf_z_r_var
0.0000000000	161.6828581459	1.0000000000	887.9649210168	1.0000000000	0.0000000000	0.0000000000	18.2332560858	1.0000000000	11.6200065481	1.0000000000	0.0000000000	0.0000000000
0.0100000000	178.1384800436	1.0000000000	871.2487397139	1.0000000000	0.0000000000	0.0000000000	26.2009876384	1.0000000000	51.6431191497	1.0000000000	0.0000000000	0.0000000000
0.0200000000	193.0624479480	1.0000000000	839.9270707552	1.0000000000	0.0000000000	0.0000000000	30.7361953948	1.0000000000	117.1238492738	1.0000000000	0.0000000000	0.0000000000
0.0300000000	204.6815792759	1.0000000000	792.8434086036	1.0000000000	0.0000000000	0.0000000000	25.3426365978	1.0000000000	208.3388539365	1.0000000000	0.0000000000	0.0000000000
0.0400000000	210.8019735381	1.0000000000	728.3487866676	1.0000000000	0.0000000000	0.0000000000	3.6557588217	1.0000000000	319.0647442511	1.0000000000	0.0000000000	0.0000000000
0.0500000000	208.0406729396	1.0000000000	646.1591840167	1.0000000000	0.0000000000	0.0000000000	-33.2619538776	1.0000000000	441.0896367894	1.0000000000	0.0000000000	0.0000000000
0.0600000000	194.8866260199	1.0000000000	549.8368805779	1.0000000000	0.0000000000	0.0000000000	-76.3047894075	1.0000000000	566.3684885883	1.0000000000	0.0000000000	0.0000000000
0.0700000000	172.2986556205	1.0000000000	446.2899666727	1.0000000000	0.0000000000	0.0000000000	-117.1933982601	1.0000000000	683.9989192681	1.0000000000	0.0000000000	0.0000000000
0.0800000000	141.2542584537	1.0000000000	342.8157628461	1.0000000000	0.0000000000	0.0000000000	-152.3025359506	1.0000000000	781.7803265028	1.0000000000	0.0000000000	0.0000000000
0.0900000000	104.9644813919	1.0000000000	246.2298026055	1.0000000000	0.0000000000	0.0000000000	-178.8770001513	1.0000000000	853.4039656278	1.0000000000	0.0000000000	0.0000000000
0.1000000000	70.0903355413	1.0000000000	163.4614833916	1.0000000000	0.0000000000	0.0000000000	-194.2132245208	1.0000000000	901.0820023328	1.0000000000	0.0000000000	0.0000000000
0.1100000000	41.9637927269	1.0000000000	99.3138352516	1.0000000000	0.0000000000	0.0000000000	-199.0598888961	1.0000000000	931.5522905076	1.0000000000	0.0000000000	0.0000000000
0.1200000000	21.2098830925	1.0000000000	53.6468108087	1.0000000000	0.0000000000	0.0000000000	-196.7357412345	1.0000000000	951.0691731129	1.0000000000	0.0000000000	0.0000000000
0.1300000000	6.9686391886	1.0000000000	23.2199821822	1.0000000000	0.0000000000	0.0000000000	-189.1893857243	1.0000000000	963.6636794929	1.0000000000	0.0000000000	0.0000000000
0.1400000000	-1.1344285596	1.0000000000	5.3363981149	1.0000000000	0.0000000000	0.0000000000	-176.6032725316	1.0000000000	971.3879401516	1.0000000000	0.0000000000	0.0000000000
0.1500000000	0.0000000000	1.0000000000	0.0000000000	1.0000000000	0.0000000000	0.0000000000	-161.0988441268	1.0000000000	973.8143860896	1.0000000000	0.0000000000	0.0000000000
0.1600000000	0.0000000000	1.0000000000	0.0000000000	1.0000000000	0.0000000000	0.0000000000	-145.3923849754	1.0000000000	967.8569130042	1.0000000000	0.0000000000	0.0000000000
0.1700000000	0.0000000000	1.0000000000	0.0000000000	1.0000000000	0.0000000000	0.0000000000	-128.8710860149	1.0000000000	949.7920811715	1.0000000000	0.0000000000	0.0000000000
0.1800000000	0.0000000000	1.0000000000	0.0000000000	1.0000000000	0.0000000000	0.0000000000	-110.8359182628	1.0000000000	918.0232783721	1.0000000000	0.0000000000	0.0000000000
0.1900000000	0.0000000000	1.0000000000	0.0000000000	1.0000000000	0.0000000000	0.0000000000	-93.3992241445	1.0000000000	873.5942701476	1.0000000000	0.0000000000	0.0000000000
0.2000000000	-2.0669348676	1.0000000000	0.8758382350	1.0000000000	0.0000000000	0.0000000000	-78.1156440206	1.0000000000	818.8212497669	1.0000000000	0.0000000000	0.0000000000
0.2100000000	-1.3895120404	1.0000000000	1.5439212337	1.0000000000	0.0000000000	0.0000000000	-64.0297942887	1.0000000000	756.8563400263	1.0000000000	0.0000000000	0.0000000000
